<?xml version="1.0" encoding="UTF-8"?>
<svg width="65px" height="65px" viewBox="0 0 65 65" version="1.1" xmlns="http://www.w3.org/2000/svg" xmlns:xlink="http://www.w3.org/1999/xlink">
    <title>Slice 1</title>
    <g id="页面-1" stroke="none" stroke-width="1" fill="none" fill-rule="evenodd">
        <g id="letterpress-dark" transform="translate(0.358117, 7.324963)" fill="#000000" fill-rule="nonzero">
            <g id="分组">
                <path d="M53.0897275,0.547487653 C55.8494932,2.13576308 56.201034,6.71117721 53.937172,10.8924124 C54.2191496,11.0826209 54.4952046,11.2895251 54.7654753,11.5076901 C60.4751516,16.1165898 64,22.4506059 64,29.44114 C64,36.3951481 60.5118904,42.6994809 54.8547965,47.3022035 C49.0468849,52.027634 40.9527974,51.1317587 32,51.1317587 C23.050951,51.1317587 14.959893,52.0300885 9.15249984,47.3081378 C3.49110892,42.7049007 0,36.3981372 0,29.44114 C0,22.4064135 3.56955571,16.0365319 9.34307174,11.4204882 C9.58376722,11.2280473 9.82758641,11.0445366 10.0744891,10.8695464 L10.2761552,11.236057 C7.80228731,6.9648281 8.09550807,2.17939702 10.9310915,0.547487653 C13.7666788,-1.08441508 18.0708504,1.05517351 20.5447411,5.32638927 C20.9480838,6.02277619 21.2778705,6.73283187 21.535075,7.44066027 C24.655354,7.24217082 28.0214303,7.33020802 31.5905516,7.33020802 C32.8191025,7.33020802 34.039273,7.3205912 35.2452252,7.31629918 L37.0427607,7.31572246 C38.9016581,7.32316917 40.7187587,7.36182474 42.4718262,7.48860374 C42.7279245,6.76526942 43.0635244,6.03867924 43.4760781,5.32638927 C45.9499686,1.05517351 50.2541402,-1.08441508 53.0897275,0.547487653 Z M40.7224059,20.1806768 L23.2988455,20.1806768 C16.2521409,20.1806768 10.539658,25.8931595 10.539658,32.9398644 C10.539658,39.8011293 15.9554399,45.3974708 22.7453785,45.6872636 L23.2988455,45.6990518 L40.7224059,45.6990518 C47.7691108,45.6990518 53.4815936,39.986569 53.4815936,32.9398644 C53.4815936,25.8931595 47.7691108,20.1806768 40.7224059,20.1806768 Z M35.5747064,37.7783148 C36.1549396,37.7783148 36.6253117,38.2486869 36.6253117,38.8289201 C36.6253117,39.4091534 36.1549396,39.8795254 35.5747064,39.8795254 L28.4537162,39.8795254 C27.873483,39.8795254 27.4031109,39.4091534 27.4031109,38.8289201 C27.4031109,38.2486869 27.873483,37.7783148 28.4537162,37.7783148 L35.5747064,37.7783148 Z M20.2888417,26.2216569 C21.5985425,26.2216569 22.6602648,27.9267554 22.6602648,30.0301011 C22.6602648,32.1334467 21.5985425,33.8385452 20.2888417,33.8385452 C18.9791409,33.8385452 17.9174186,32.1334467 17.9174186,30.0301011 C17.9174186,27.9267554 18.9791409,26.2216569 20.2888417,26.2216569 Z M42.6856151,26.2216569 C43.9953157,26.2216569 45.0570381,27.9267554 45.0570381,30.0301011 C45.0570381,32.1334467 43.9953157,33.8385452 42.6856151,33.8385452 C41.3759142,33.8385452 40.3141919,32.1334467 40.3141919,30.0301011 C40.3141919,27.9267554 41.3759142,26.2216569 42.6856151,26.2216569 Z" id="形状结合"></path>
            </g>
        </g>
    </g>
</svg>